<svg width="1581" height="512" viewBox="0 0 1581 512" fill="none" xmlns="http://www.w3.org/2000/svg">
<path d="M361.702 72.8773L361.72 72.8876L361.738 72.8978L461.152 130.023C465.196 132.347 467.685 136.658 467.675 141.321L467.44 255.979L467.44 256L467.44 256.021L467.675 370.679C467.685 375.342 465.196 379.653 461.152 381.977L361.738 439.102L361.72 439.112L361.702 439.123L262.523 496.655C258.489 498.995 253.511 498.995 249.477 496.655L150.298 439.123L150.28 439.112L150.262 439.102L50.8479 381.977C46.8044 379.653 44.3153 375.342 44.3248 370.679L44.56 256.021L44.56 256L44.56 255.979L44.3248 141.321C44.3153 136.658 46.8044 132.347 50.8479 130.023L150.262 72.8978L150.28 72.8876L150.298 72.8773L249.477 15.3447C253.511 13.0046 258.489 13.0046 262.523 15.3447L361.702 72.8773Z" stroke="#302D97" stroke-width="20"/>
<path d="M270.092 173.5H262.635C259.874 173.5 257.635 171.261 257.635 168.5V109.47C257.635 104.444 264.219 102.56 266.878 106.825L273.578 117.571C274.568 119.159 275.092 120.992 275.092 122.862V168.5C275.092 171.261 272.854 173.5 270.092 173.5Z" fill="#302D97"/>
<path fill-rule="evenodd" clip-rule="evenodd" d="M257.136 489V370.895C257.136 363.947 260.027 357.313 265.117 352.583L286.376 332.825C293.032 326.639 288.655 315.5 279.569 315.5H161.828C158.434 315.5 155.271 313.778 153.429 310.928L114.98 251.428C110.68 244.774 115.456 236 123.378 236H196.273C199.035 236 201.273 233.761 201.273 231V204C201.273 190.193 212.466 179 226.273 179H300.018C302.78 179 305.018 176.761 305.018 174V109.32C305.018 103.931 312.369 102.355 314.579 107.27L439.188 384.5L257.136 489ZM258.048 218.295L243.111 232.553C241.806 233.799 242.687 236 244.492 236H278.508C280.313 236 281.194 233.799 279.889 232.553L264.952 218.295C263.02 216.451 259.98 216.451 258.048 218.295Z" fill="#302D97"/>
<path d="M867.146 303.218C862.346 303.218 858.473 304.691 855.527 307.636C852.582 310.582 850.836 314.891 850.291 320.564C850.291 321.545 850.673 322.036 851.436 322.036H882.527C883.4 322.036 883.836 321.545 883.836 320.564C883.4 309 877.836 303.218 867.146 303.218ZM869.273 373.745C855.746 373.745 844.836 369.764 836.546 361.8C828.364 353.836 824.273 343.091 824.273 329.564C824.273 315.927 828.091 305.182 835.727 297.327C843.364 289.364 853.618 285.382 866.491 285.382C879.582 285.382 889.782 289.145 897.091 296.673C904.4 304.2 908.109 314.945 908.218 328.909C908.218 331.527 907.236 333.764 905.273 335.618C903.418 337.364 901.127 338.236 898.4 338.236H851.764C850.782 338.236 850.4 338.727 850.618 339.709C851.6 344.618 853.946 348.436 857.655 351.164C861.364 353.891 866.055 355.255 871.727 355.255C877.291 355.255 882.364 354.491 886.946 352.964C889.346 352.2 891.636 352.364 893.818 353.455C896.109 354.436 897.636 356.073 898.4 358.364C899.273 360.873 899.109 363.327 897.909 365.727C896.818 368.127 895.073 369.709 892.673 370.473C885.8 372.655 878 373.745 869.273 373.745ZM939.8 363.273L918.691 295.855C918.036 293.673 918.364 291.655 919.673 289.8C920.982 287.945 922.782 287.018 925.073 287.018H934.727C937.455 287.018 939.855 287.891 941.927 289.636C944.109 291.273 945.527 293.4 946.182 296.018L960.746 356.727C960.746 356.836 960.8 356.891 960.909 356.891C961.018 356.891 961.073 356.836 961.073 356.727L975.636 296.018C976.291 293.4 977.655 291.273 979.727 289.636C981.909 287.891 984.364 287.018 987.091 287.018H996.091C998.382 287.018 1000.18 287.945 1001.49 289.8C1002.8 291.655 1003.13 293.673 1002.47 295.855L981.364 363.273C980.491 365.891 978.909 368.018 976.618 369.655C974.436 371.291 971.982 372.109 969.255 372.109H951.909C949.073 372.109 946.509 371.291 944.218 369.655C942.036 368.018 940.564 365.891 939.8 363.273ZM1055 303.218C1050.2 303.218 1046.33 304.691 1043.38 307.636C1040.44 310.582 1038.69 314.891 1038.15 320.564C1038.15 321.545 1038.53 322.036 1039.29 322.036H1070.38C1071.25 322.036 1071.69 321.545 1071.69 320.564C1071.25 309 1065.69 303.218 1055 303.218ZM1057.13 373.745C1043.6 373.745 1032.69 369.764 1024.4 361.8C1016.22 353.836 1012.13 343.091 1012.13 329.564C1012.13 315.927 1015.95 305.182 1023.58 297.327C1031.22 289.364 1041.47 285.382 1054.35 285.382C1067.44 285.382 1077.64 289.145 1084.95 296.673C1092.25 304.2 1095.96 314.945 1096.07 328.909C1096.07 331.527 1095.09 333.764 1093.13 335.618C1091.27 337.364 1088.98 338.236 1086.25 338.236H1039.62C1038.64 338.236 1038.25 338.727 1038.47 339.709C1039.45 344.618 1041.8 348.436 1045.51 351.164C1049.22 353.891 1053.91 355.255 1059.58 355.255C1065.15 355.255 1070.22 354.491 1074.8 352.964C1077.2 352.2 1079.49 352.364 1081.67 353.455C1083.96 354.436 1085.49 356.073 1086.25 358.364C1087.13 360.873 1086.96 363.327 1085.76 365.727C1084.67 368.127 1082.93 369.709 1080.53 370.473C1073.65 372.655 1065.85 373.745 1057.13 373.745ZM1126.02 372.109C1123.51 372.109 1121.33 371.182 1119.47 369.327C1117.73 367.473 1116.85 365.291 1116.85 362.782V258.709C1116.85 256.2 1117.73 254.018 1119.47 252.164C1121.33 250.309 1123.51 249.382 1126.02 249.382H1135.18C1137.69 249.382 1139.82 250.309 1141.56 252.164C1143.42 254.018 1144.35 256.2 1144.35 258.709V362.782C1144.35 365.291 1143.42 367.473 1141.56 369.327C1139.82 371.182 1137.69 372.109 1135.18 372.109H1126.02ZM1225.84 329.564C1225.84 312.873 1219.89 304.527 1208 304.527C1196.11 304.527 1190.16 312.873 1190.16 329.564C1190.16 346.255 1196.11 354.6 1208 354.6C1219.89 354.6 1225.84 346.255 1225.84 329.564ZM1240.07 361.964C1232.33 369.818 1221.64 373.745 1208 373.745C1194.36 373.745 1183.67 369.818 1175.93 361.964C1168.18 354 1164.31 343.2 1164.31 329.564C1164.31 315.927 1168.18 305.182 1175.93 297.327C1183.67 289.364 1194.36 285.382 1208 285.382C1221.64 285.382 1232.33 289.364 1240.07 297.327C1247.82 305.182 1251.69 315.927 1251.69 329.564C1251.69 343.2 1247.82 354 1240.07 361.964ZM1293.75 328.745V330.382C1293.75 337.8 1295.27 343.527 1298.33 347.564C1301.38 351.6 1305.42 353.618 1310.44 353.618C1315.35 353.618 1319.33 351.545 1322.38 347.4C1325.55 343.145 1327.13 337.2 1327.13 329.564C1327.13 321.6 1325.65 315.6 1322.71 311.564C1319.76 307.527 1315.67 305.509 1310.44 305.509C1305.42 305.509 1301.38 307.582 1298.33 311.727C1295.27 315.764 1293.75 321.436 1293.75 328.745ZM1276.89 408.109C1274.38 408.109 1272.2 407.182 1270.35 405.327C1268.49 403.473 1267.56 401.291 1267.56 398.782V296.345C1267.56 293.836 1268.49 291.655 1270.35 289.8C1272.2 287.945 1274.38 287.018 1276.89 287.018H1282.62C1285.24 287.018 1287.47 287.945 1289.33 289.8C1291.18 291.545 1292.16 293.727 1292.27 296.345L1292.44 298.636C1292.44 298.745 1292.49 298.8 1292.6 298.8L1292.93 298.473C1299.69 289.745 1308.15 285.382 1318.29 285.382C1328.65 285.382 1336.89 289.2 1343 296.836C1349.11 304.473 1352.16 315.382 1352.16 329.564C1352.16 343.418 1349 354.273 1342.67 362.127C1336.35 369.873 1328.22 373.745 1318.29 373.745C1308.47 373.745 1300.45 369.873 1294.24 362.127C1294.24 362.018 1294.13 361.964 1293.91 361.964C1293.8 361.964 1293.75 362.018 1293.75 362.127V398.782C1293.75 401.291 1292.82 403.473 1290.96 405.327C1289.11 407.182 1286.93 408.109 1284.42 408.109H1276.89ZM1406 303.218C1401.2 303.218 1397.33 304.691 1394.38 307.636C1391.44 310.582 1389.69 314.891 1389.15 320.564C1389.15 321.545 1389.53 322.036 1390.29 322.036H1421.38C1422.25 322.036 1422.69 321.545 1422.69 320.564C1422.25 309 1416.69 303.218 1406 303.218ZM1408.13 373.745C1394.6 373.745 1383.69 369.764 1375.4 361.8C1367.22 353.836 1363.13 343.091 1363.13 329.564C1363.13 315.927 1366.95 305.182 1374.58 297.327C1382.22 289.364 1392.47 285.382 1405.35 285.382C1418.44 285.382 1428.64 289.145 1435.95 296.673C1443.25 304.2 1446.96 314.945 1447.07 328.909C1447.07 331.527 1446.09 333.764 1444.13 335.618C1442.27 337.364 1439.98 338.236 1437.25 338.236H1390.62C1389.64 338.236 1389.25 338.727 1389.47 339.709C1390.45 344.618 1392.8 348.436 1396.51 351.164C1400.22 353.891 1404.91 355.255 1410.58 355.255C1416.15 355.255 1421.22 354.491 1425.8 352.964C1428.2 352.2 1430.49 352.364 1432.67 353.455C1434.96 354.436 1436.49 356.073 1437.25 358.364C1438.13 360.873 1437.96 363.327 1436.76 365.727C1435.67 368.127 1433.93 369.709 1431.53 370.473C1424.65 372.655 1416.85 373.745 1408.13 373.745ZM1472.93 372.109C1470.42 372.109 1468.24 371.182 1466.38 369.327C1464.64 367.473 1463.76 365.291 1463.76 362.782V296.345C1463.76 293.836 1464.64 291.655 1466.38 289.8C1468.24 287.945 1470.42 287.018 1472.93 287.018H1479.31C1481.82 287.018 1484 287.945 1485.85 289.8C1487.71 291.655 1488.64 293.836 1488.64 296.345L1488.8 303.218C1488.8 303.327 1488.85 303.382 1488.96 303.382C1489.07 303.382 1489.18 303.327 1489.29 303.218C1496.93 293.727 1506.75 288 1518.75 286.036C1521.25 285.6 1523.44 286.309 1525.29 288.164C1527.15 289.909 1528.07 292.091 1528.07 294.709V297C1528.07 299.509 1527.15 301.745 1525.29 303.709C1523.55 305.564 1521.36 306.655 1518.75 306.982C1509.47 308.291 1502.44 311.455 1497.64 316.473C1492.84 321.382 1490.44 327.764 1490.44 335.618V362.782C1490.44 365.291 1489.51 367.473 1487.65 369.327C1485.8 371.182 1483.62 372.109 1481.11 372.109H1472.93Z" fill="#302D97"/>
<path d="M867.146 159.582C862.346 159.582 858.473 161.055 855.527 164C852.582 166.945 850.836 171.255 850.291 176.927C850.291 177.909 850.673 178.4 851.436 178.4H882.527C883.4 178.4 883.836 177.909 883.836 176.927C883.4 165.364 877.836 159.582 867.146 159.582ZM869.273 230.109C855.746 230.109 844.836 226.127 836.546 218.164C828.364 210.2 824.273 199.455 824.273 185.927C824.273 172.291 828.091 161.545 835.727 153.691C843.364 145.727 853.618 141.745 866.491 141.745C879.582 141.745 889.782 145.509 897.091 153.036C904.4 160.564 908.109 171.309 908.218 185.273C908.218 187.891 907.236 190.127 905.273 191.982C903.418 193.727 901.127 194.6 898.4 194.6H851.764C850.782 194.6 850.4 195.091 850.618 196.073C851.6 200.982 853.946 204.8 857.655 207.527C861.364 210.255 866.055 211.618 871.727 211.618C877.291 211.618 882.364 210.855 886.946 209.327C889.346 208.564 891.636 208.727 893.818 209.818C896.109 210.8 897.636 212.436 898.4 214.727C899.273 217.236 899.109 219.691 897.909 222.091C896.818 224.491 895.073 226.073 892.673 226.836C885.8 229.018 878 230.109 869.273 230.109ZM934.073 228.473C931.564 228.473 929.382 227.545 927.527 225.691C925.782 223.836 924.909 221.655 924.909 219.145V152.709C924.909 150.2 925.782 148.018 927.527 146.164C929.382 144.309 931.564 143.382 934.073 143.382H940.455C942.964 143.382 945.146 144.309 947 146.164C948.855 148.018 949.782 150.2 949.782 152.709L949.946 159.582C949.946 159.691 950 159.745 950.109 159.745C950.218 159.745 950.327 159.691 950.436 159.582C958.073 150.091 967.891 144.364 979.891 142.4C982.4 141.964 984.582 142.673 986.436 144.527C988.291 146.273 989.218 148.455 989.218 151.073V153.364C989.218 155.873 988.291 158.109 986.436 160.073C984.691 161.927 982.509 163.018 979.891 163.345C970.618 164.655 963.582 167.818 958.782 172.836C953.982 177.745 951.582 184.127 951.582 191.982V219.145C951.582 221.655 950.655 223.836 948.8 225.691C946.946 227.545 944.764 228.473 942.255 228.473H934.073ZM1029.47 129.636L1025.71 128L1021.95 129.473C1020.64 130.018 1019.38 130.018 1018.18 129.473C1016.98 128.818 1016.16 127.836 1015.73 126.527C1015.62 125.982 1015.56 125.436 1015.56 124.891L1015.73 120.8L1013.27 117.691C1012.4 116.709 1012.07 115.509 1012.29 114.091C1012.51 112.673 1013.16 111.582 1014.25 110.818C1014.69 110.491 1015.18 110.273 1015.73 110.164L1019.65 109.182L1021.78 105.745C1022.55 104.655 1023.58 104 1024.89 103.782C1026.31 103.564 1027.56 103.836 1028.65 104.6C1029.09 104.927 1029.47 105.364 1029.8 105.909L1031.93 109.182L1035.85 110.327C1037.16 110.655 1038.15 111.418 1038.8 112.618C1039.45 113.818 1039.51 115.073 1038.96 116.382C1038.85 116.927 1038.58 117.418 1038.15 117.855L1035.69 120.964L1035.85 124.891C1035.96 126.309 1035.53 127.509 1034.55 128.491C1033.56 129.473 1032.42 129.964 1031.11 129.964C1030.45 129.855 1029.91 129.745 1029.47 129.636ZM1020.8 228.473C1018.29 228.473 1016.11 227.545 1014.25 225.691C1012.51 223.836 1011.64 221.655 1011.64 219.145V152.709C1011.64 150.2 1012.51 148.018 1014.25 146.164C1016.11 144.309 1018.29 143.382 1020.8 143.382H1029.96C1032.47 143.382 1034.6 144.309 1036.35 146.164C1038.2 148.018 1039.13 150.2 1039.13 152.709V219.145C1039.13 221.655 1038.2 223.836 1036.35 225.691C1034.6 227.545 1032.47 228.473 1029.96 228.473H1020.8Z" fill="#302D97"/>
<path d="M646.909 176.582V341.673C646.909 343.855 647.879 345.188 649.818 345.673C654.667 346.642 660.485 347.127 667.273 347.127C718.667 347.127 744.364 316.582 744.364 255.491C744.364 199.249 718.667 171.127 667.273 171.127C660.485 171.127 654.667 171.612 649.818 172.582C647.879 173.067 646.909 174.4 646.909 176.582ZM606.909 392.582C601.091 392.097 596.121 389.673 592 385.309C588.121 380.703 586.182 375.37 586.182 369.309V148.945C586.182 142.885 588.121 137.673 592 133.309C596.121 128.703 601.091 126.158 606.909 125.673C625.818 123.733 644.364 122.764 662.545 122.764C707.151 122.764 741.697 134.521 766.182 158.036C790.909 181.309 803.273 213.794 803.273 255.491C803.273 300.097 790.909 334.642 766.182 359.127C741.697 383.37 707.151 395.491 662.545 395.491C644.364 395.491 625.818 394.521 606.909 392.582Z" fill="#302D97"/>
</svg>
