<svg width="512" height="512" viewBox="0 0 512 512" fill="none" xmlns="http://www.w3.org/2000/svg">
<path d="M361.702 72.8773L361.72 72.8876L361.738 72.8978L461.152 130.023C465.196 132.347 467.685 136.658 467.675 141.321L467.44 255.979L467.44 256L467.44 256.021L467.675 370.679C467.685 375.342 465.196 379.653 461.152 381.977L361.738 439.102L361.72 439.112L361.702 439.123L262.523 496.655C258.489 498.995 253.511 498.995 249.477 496.655L244.459 505.305L249.477 496.655L150.298 439.123L150.28 439.112L150.262 439.102L50.8479 381.977C46.8044 379.653 44.3153 375.342 44.3248 370.679L44.56 256.021L44.56 256L44.56 255.979L44.3248 141.321C44.3153 136.658 46.8044 132.347 50.8479 130.023L150.262 72.8978L150.28 72.8876L150.298 72.8773L249.477 15.3447C253.511 13.0046 258.489 13.0046 262.523 15.3447L361.702 72.8773Z" stroke="white" stroke-width="20"/>
<path d="M270.092 173.5H262.635C259.873 173.5 257.635 171.261 257.635 168.5V109.47C257.635 104.444 264.218 102.56 266.878 106.825L273.578 117.571C274.567 119.159 275.092 120.992 275.092 122.862V168.5C275.092 171.261 272.853 173.5 270.092 173.5Z" fill="white"/>
<path fill-rule="evenodd" clip-rule="evenodd" d="M257.136 489V370.895C257.136 363.947 260.028 357.313 265.117 352.583L286.376 332.825C293.032 326.639 288.655 315.5 279.569 315.5H161.828C158.434 315.5 155.271 313.778 153.429 310.927L114.98 251.427C110.68 244.774 115.456 236 123.379 236H196.273C199.035 236 201.273 233.761 201.273 231V204C201.273 190.193 212.466 179 226.273 179H300.018C302.78 179 305.018 176.761 305.018 174V109.32C305.018 103.931 312.369 102.355 314.579 107.27L439.188 384.5L257.136 489ZM258.048 218.295L243.111 232.553C241.806 233.799 242.687 236 244.492 236H278.508C280.313 236 281.194 233.799 279.889 232.553L264.952 218.295C263.02 216.451 259.98 216.451 258.048 218.295Z" fill="white"/>
</svg>
